<?xml version="1.0" encoding="UTF-8" standalone="no"?><!-- Generator: Gravit.io --><svg xmlns="http://www.w3.org/2000/svg" xmlns:xlink="http://www.w3.org/1999/xlink" style="isolation:isolate" viewBox="0 0 24 23.4" width="24pt" height="23.4pt"><defs><clipPath id="_clipPath_1hascmYHUCWNqNeMtVZOpnVqglp03vLa"><rect width="24" height="23.4"/></clipPath></defs><g clip-path="url(#_clipPath_1hascmYHUCWNqNeMtVZOpnVqglp03vLa)"><path d=" M 12 -0.009 C 5.371 -0.009 0 5.362 0 11.991 C 0 17.291 3.438 21.791 8.207 23.378 C 8.809 23.488 9.027 23.12 9.027 22.8 C 9.027 22.514 9.016 21.76 9.012 20.76 C 5.672 21.483 4.969 19.151 4.969 19.151 C 4.422 17.764 3.637 17.393 3.637 17.393 C 2.547 16.651 3.719 16.667 3.719 16.667 C 4.922 16.753 5.555 17.901 5.555 17.901 C 6.625 19.737 8.363 19.206 9.047 18.901 C 9.157 18.124 9.469 17.596 9.809 17.296 C 7.145 16.995 4.344 15.964 4.344 11.366 C 4.344 10.053 4.813 8.983 5.578 8.143 C 5.457 7.843 5.043 6.62 5.695 4.968 C 5.695 4.968 6.703 4.648 8.996 6.198 C 9.975 5.932 10.985 5.797 12 5.796 C 13.02 5.8 14.047 5.932 15.004 6.198 C 17.297 4.648 18.301 4.968 18.301 4.968 C 18.957 6.62 18.547 7.843 18.421 8.143 C 19.191 8.983 19.652 10.053 19.652 11.366 C 19.652 15.976 16.848 16.987 14.176 17.288 C 14.606 17.655 14.988 18.389 14.988 19.507 C 14.988 21.112 14.977 22.405 14.977 22.8 C 14.977 23.12 15.191 23.495 15.801 23.378 C 20.566 21.788 24 17.291 24 11.991 C 24 5.362 18.629 -0.009 12 -0.009 Z " fill-rule="evenodd" fill="rgb(123,138,133)"/></g></svg>