<?xml version="1.0" encoding="UTF-8" standalone="no"?><!-- Generator: Gravit.io --><svg xmlns="http://www.w3.org/2000/svg" xmlns:xlink="http://www.w3.org/1999/xlink" style="isolation:isolate" viewBox="0 0 19 19" width="19pt" height="19pt"><defs><clipPath id="_clipPath_NG1ui9CHjTJM1rBirAhfvj2No8izPFr5"><rect width="19" height="19"/></clipPath></defs><g clip-path="url(#_clipPath_NG1ui9CHjTJM1rBirAhfvj2No8izPFr5)"><path d=" M 15.2 0 L 3.8 0 C 1.704 0 0 1.704 0 3.8 L 0 15.2 C 0 17.296 1.704 19 3.8 19 L 15.2 19 C 17.296 19 19 17.296 19 15.2 L 19 3.8 C 19 1.704 17.296 0 15.2 0 Z  M 6.08 13.261 L 6.08 15.96 L 3.04 15.96 L 3.04 7.22 L 6.08 7.22 L 6.08 13.261 Z  M 4.56 6.27 C 3.649 6.27 3.04 5.624 3.04 4.826 C 3.04 4.028 3.649 3.42 4.56 3.42 C 5.471 3.42 6.041 4.029 6.08 4.826 C 6.08 5.624 5.51 6.27 4.56 6.27 Z  M 15.96 15.96 L 12.92 15.96 L 12.92 11.02 C 12.92 10.679 12.881 9.5 11.59 9.5 C 10.45 9.5 10.26 10.601 10.26 11.02 L 10.26 15.96 L 7.22 15.96 L 7.22 7.22 L 10.26 7.22 L 10.26 8.399 C 10.26 8.399 10.869 7.22 12.654 7.22 C 14.479 7.22 15.96 8.474 15.96 11.02 L 15.96 15.96 Z " fill="rgb(123,138,133)"/></g></svg>